<svg t="1647235173157" class="icon" viewBox="0 0 1024 1024" version="1.1" xmlns="http://www.w3.org/2000/svg" p-id="19232" width="200" height="200"><path d="M840.533333 644.266667c-42.666667 46.933333-170.666667 81.066667-328.533333 81.066666-153.6 0-285.866667-34.133333-328.533333-81.066666-8.533333-8.533333-12.8-4.266667-12.8 0v153.6c0 68.266667 153.6 136.533333 341.333333 136.533333s341.333333-68.266667 341.333333-136.533333v-153.6c0-4.266667-4.266667-8.533333-12.8 0z m0-213.333334c-38.4 46.933333-170.666667 76.8-328.533333 76.8s-290.133333-34.133333-328.533333-76.8c-8.533333-8.533333-12.8-4.266667-12.8 0v132.266667c0 68.266667 153.6 119.466667 341.333333 119.466667s341.333333-55.466667 341.333333-119.466667v-132.266667c0-4.266667-4.266667-8.533333-12.8 0zM512 128C324.266667 128 170.666667 174.933333 170.666667 230.4v132.266667C170.666667 422.4 324.266667 469.333333 512 469.333333s341.333333-46.933333 341.333333-106.666666V230.4C853.333333 174.933333 699.733333 128 512 128z" p-id="19233"></path></svg>