<svg t="1647259882584" class="icon" viewBox="0 0 1024 1024" version="1.1" xmlns="http://www.w3.org/2000/svg" p-id="8742" width="200" height="200"><path d="M71.253333 581.973333v128a45.226667 45.226667 0 0 0 45.226667 45.226667h791.04a45.226667 45.226667 0 0 0 45.226667-45.226667v-128z m192 121.173334a35.413333 35.413333 0 1 1 35.413334-35.413334 35.413333 35.413333 0 0 1-35.413334 35.413334z m475.733334-14.08H452.266667a21.333333 21.333333 0 1 1 0-42.666667h286.72a21.333333 21.333333 0 0 1 0 42.666667zM748.8 270.933333H275.2l-203.946667 286.293334h881.493334z m-236.8 213.333334c-80.64 0-133.12-42.666667-120.32-87.893334 10.666667-36.693333 63.573333-61.866667 120.32-61.866666s109.653333 25.173333 120.32 61.866666c12.8 44.373333-39.68 87.893333-120.32 87.893334z" fill="#2c2c2c" p-id="8743"></path><path d="M572.586667 381.866667a26.88 26.88 0 0 0-23.466667 0l-50.346667 30.293333-25.173333-15.36a26.88 26.88 0 0 0-24.32 0c-7.253333 3.84-8.533333 10.666667-2.133333 14.933333l37.546666 25.173334a24.32 24.32 0 0 0 13.226667 3.413333 25.173333 25.173333 0 0 0 13.653333-3.413333l63.573334-42.666667c5.546667-2.56 4.693333-10.24-2.56-12.373333z" fill="#2c2c2c" p-id="8744"></path></svg>