<svg t="1649665877456" class="icon" viewBox="0 0 1024 1024" version="1.1" xmlns="http://www.w3.org/2000/svg" p-id="11017" width="200" height="200"><path d="M712.3 461.5L860.5 832H788l-40.4-101H609.8l-40.4 101h-72.5l148.2-370.5h67.2zM426 192v67.4h202.1v67.4h-66.3c-26 78.2-67.5 150.4-121.9 212.2 24.3 21.7 50.6 40.9 78.7 57.5l-25.3 63.3c-36.2-20.5-70-44.9-100.9-72.8-60.2 54.5-131.6 95.2-209.1 119.5l-18-65c66.4-21.1 127.5-56 179.5-102.4-38.5-43.6-70.5-92.4-95.1-145.1h75.6c18.8 34.7 41.3 67.2 67.1 97 42.1-48.5 75.4-104.1 98.1-164.2H156.6v-67.4h202.1V192H426z m252.6 366.6l-42 104.9h83.9l-41.9-104.9z" p-id="11018"></path></svg>