<svg t="1647260004094" class="icon" viewBox="0 0 1024 1024" version="1.1" xmlns="http://www.w3.org/2000/svg" p-id="10362" width="200" height="200"><path d="M468 557.2V132C255.6 143.8 87 319.7 87 535c0 222.9 180.7 403.7 403.7 403.7 215.5 0 391.6-168.9 403.1-381.6H468z" p-id="10363"></path><path d="M936.9 507.6H514V85.2l21 1.1c104.5 5.4 202.9 49.2 277.1 123.3 74.2 74.1 118.1 172.4 123.7 276.9l1.1 21.1z m-382.9-40h340.2C884.7 380.9 846 300 783.8 238 721.6 175.8 640.7 137.3 554 128v339.6z" p-id="10364"></path></svg>